<svg viewBox="0 0 69.2 69.8" xmlns="http://www.w3.org/2000/svg"><style>.st1{fill:#fff}</style><path d="M67.8 35.2c0 18.5-15 33.5-33.5 33.5S.8 53.7.8 35.2s15-33.5 33.5-33.5 33.5 15 33.5 33.5z" fill="none" stroke="#fff" stroke-width=".5"/><path class="st1" d="M61 22.4zM58.3 17.9zM56 33.9v-.1c0-.2.1-.4.4-.4h.5c0 .1 0 .7.1.8h.3c0-.1-.1-.7-.1-.8.1 0 .7-.1.8-.1s.1 0 .1.1v.6c0 .4-.4.5-.6.5v.3c.2 0 .6-.1.8-.1 0-1-.1-1.6-.2-2.4h-.2v.1c0 .3-.2.3-.5.3-.2 0-.7.1-1.1.1-.5.1-.5 0-.6-.2v-.1h-.2c.1.4.1.9.1 1.4h.4zM18.4 49.7l.1.1c.1.2.2.3-.1.6l-.4.4c-.1-.1-.5-.5-.5-.6-.1 0-.2.1-.2.2s.5.5.5.6l-.6.6c-.1.1-.1.1-.2 0l-.4-.4c-.3-.3 0-.6.1-.8 0-.1-.1-.2-.2-.2-.2.1-.4.4-.6.6.7.8 1 1.2 1.6 1.7.1 0 .1-.1.2-.2l-.1-.1c-.2-.2 0-.4.2-.6l.8-.8c.4-.4.4-.3.6-.2l.1.1c.1 0 .1-.1.2-.2l-1-1c0 .1-.1.2-.1.2zM56.2 37.2c.9-.2 1-.3 1.7-.4.2-.1.4-.1.4.1v.1c.1.1.2.1.2 0 0-.4.1-.8.1-1.3-.1-.1-.2-.1-.2 0v.2c-.1.2-.1.3-.4.3-.2 0-2.1.5-2.2.5v.1s.1.4.1.5c.6.3 1.6.8 1.9 1 .4.2.4.3.4.4v.1c0 .1.2.1.2 0 0-.3.1-.8.1-1.1 0-.1-.2-.1-.2 0v.1c0 .1-.1.2-.4.1-.7-.2-1.2-.5-1.7-.7zM50.8 21.4c0-.1.1-.1.2-.2l.1.1c.2.2.2.2.6-.1.2-.2.7-.6.9-.7s.4-.3.3-.5l-.1-.1c0-.1.1-.2.2-.1.3.4.7.8.9 1.1 0 .1-.1.1-.2.1l-.1-.1c-.2-.2-.4-.1-.6.1-.3.3-.7.5-.9.7-.3.2-.4.3-.3.6 0 0 .1.1.1.2s-.1.1-.2.1c-.3-.5-.7-.9-.9-1.2zM14.1 28.2c-.1 0-.2 0-.2-.1v-.2c0-.2 0-.3-.4-.5-.3-.1-.8-.3-1.1-.4-.2-.1-.5-.2-.6.1 0 0 0 .1-.1.1s-.2 0-.2-.1c.2-.5.4-1 .5-1.3.1 0 .2 0 .2.1v.1c-.1.3.1.4.4.5.4.1.8.3 1.1.4.4.1.5.2.6 0 0 0 .1-.1.1-.2.1 0 .2 0 .2.1-.1.3-.4 1-.5 1.4zM52.6 24c0-.1.1-.2.2-.1l.1.1s.1.2.3.1.3-.1.3-.2c-.1-.1-.4-.7-.7-1.1 0-.1 0-.2.1-.2s2.6.4 2.7.4c.1.1 0 .2 0 .3-.1 0-2.2-.3-2.3-.3.2.3.4.6.5.8.1-.1.4-.2.6-.3h.1l.3.3v.1c-.2.1-.6.3-.7.4.1.1.2.4.2.4 0 .1-.2.2-.3.1 0 0-.2-.3-.2-.4-.1 0-.2.1-.4.2-.1.1 0 .2 0 .3s.1.1.1.2-.1.1-.2.1c-.2-.5-.4-.8-.7-1.2zM53.6 26.5c-.1-.1-.1-.2 0-.3.1 0 2.5.1 2.7.1-.1-.3-.3-.7-.4-.9s-.2-.2-.4-.2h-.1c-.1 0-.1-.2 0-.2s.6-.1.8-.1c0 .1.1.2.1.3s.4.9.4 1.1c.1.1.1.3.2.4 0 .1-.1.1-.1.1-.2-.1-.4-.1-.5-.1 0-.1-2.5-.2-2.7-.2zM18 21.8c0 .1-.2.2-.3.1s-1.1-2.2-1.2-2.4c-.2.2-.5.6-.6.8s-.1.3 0 .4c0 .1 0 .1.1.1 0 .1-.1.2-.2.1s-.4-.6-.5-.7c.1-.1.1-.2.2-.2.1-.1.6-.8.7-.9s.2-.3.3-.4h.2c0 .2.1.3.1.4 0 .3 1.1 2.5 1.2 2.7zM54.5 28.6c0-.1.1-.1.2-.1.1.3.4.6.7.8.4.2.8.3 1.3.2s.9-.4.8-.8c-.2-.4-.5-.3-.7-.2-.5.2-.5.5-.4.8 0 .1-.1.1-.2.1s-.2-.2-.3-.5c-.1-.5.3-.8.5-.9.6-.2 1.1.2 1.2.6.2.6 0 1.3-.9 1.5s-1.9-.5-2.2-1.5zM56.3 44.7s0 .1-.1.1c-.1.1-.2.2-.5 0l-1.2-.5c-.4-.2-.4-.2-.3-.4v-.1c0-.1-.1-.1-.2-.1l-.2.6-.3.6c-.3.6-.5 1.5.4 2 .7.5 1.5.3 2.1-.9.2-.4.4-.8.5-1.1 0-.2-.1-.2-.2-.2zm-.5.9s0 .1-.1.2c-.3.6-.9.9-1.5.6-.5-.3-.6-.6-.7-.9 0-.2 0-.4.1-.6s.1-.2.2-.3c.1 0 .3 0 .4.1l1.4.7c.2.1.2.1.2.2zM51.1 51.4c.1.1.1.2.1.3s0 .3-.2.4c0 0-.1.1-.3.2 0 0-.9-1-1.1-1.2-.3-.3-.3-.4-.2-.6 0 0 0-.1.1-.1 0-.1-.1-.2-.2-.2l-.9.9c0 .1.1.2.1.2l.1-.1c.2-.1.3-.1.6.2.2.2 1.1 1.2 1.1 1.2l-.3.3c-.2.2-.4 0-.4 0-.1 0-.1-.1-.2-.1s-.2.1-.2.2c.1.1.4.5.5.6.8-.7 1.2-1.1 1.9-1.8 0 0-.3-.6-.4-.6.1.1 0 .1-.1.2zM51.6 47.9c0 .1.1.1.2.1l.1-.1c.1-.2.2-.1.3.2.1.1.1.2.2.3-.1.1-.5.7-.6.8-.1 0-.1 0-.3-.1s-.3-.1-.2-.3l.1-.1c0-.1-.1-.2-.2-.1s-.4.5-.7.9c0 .1.1.2.2.2l.1-.1c.2-.2.4-.1.6 0s2.1.7 2.2.7h.1s.1-.3.1-.4c-.1-.1-.9-1.5-1.1-1.9s-.2-.5-.1-.6c0-.1 0-.1.1-.1 0-.1-.1-.1-.2-.1-.4 0-.9.6-.9.7zm1.4 1.7l-1.1-.4.5-.6.6 1zM11 35.7c-.1 0-.2 0-.3-.1s-.2-.2-.2-.4v-.4h1.6c.5 0 .5 0 .6.3v.1h.2v-1.3c-.1 0-.2-.1-.2 0v.1c0 .2-.2.3-.6.3h-1.6v-.5c0-.2.2-.3.3-.3h.2c.1-.1 0-.2 0-.2h-.8c-.1 1-.1 1.6-.1 2.6 0 0 .6.2.7.2.2-.2.2-.3.2-.4zM13.1 37.9c-.1-.1-.2 0-.2 0v.1c0 .2-.1.2-.3.1-.2 0-.2-.1-.3-.1 0-.1-.1-.8-.1-1 .1 0 .1 0 .3-.1s.3-.2.3.1v.1c.1.1.2 0 .2 0 0-.2 0-.6-.1-1.2-.1-.1-.2 0-.2 0v.2c0 .3-.3.3-.4.4l-2 1v.1s.1.3.2.3 1.7.5 2.1.6.5.2.5.3v.1h.2c-.1-.2-.2-.9-.2-1zm-2.2-.2l1-.5.1.8-1.1-.3zM16.9 47.3c-.3-.4-.6-.6-1-.7s-.8 0-1.1.2-.6.6-.6.9c-.1.4 0 .8.3 1.2.5.8 1.4 1 2.1.5.3-.2.5-.5.6-.9.1-.3 0-.8-.3-1.2zm-.8 1.7c-.3.2-.6.3-.9.2-.2 0-.4-.2-.5-.4s-.2-.4-.1-.6c.1-.3.3-.6.7-.9.6-.4 1.1-.4 1.4.1.3.7-.1 1.2-.6 1.6zM21.9 52.5c0 .1-.1.2-.1.2h-.1c-.2-.1-.3-.1-.6.3-.2.3-.5.7-.7.9-.2.3-.3.4-.1.6l.1.1c0 .1-.1.2-.1.2-.4-.3-1.1-.8-1.8-1.5.1-.2.3-.4.4-.6.1 0 .2 0 .2.1s-.1.1-.1.2-.1.3.1.4c.2.2.4.3.5.4s.1 0 .2 0c.1-.1.5-.6.5-.6-.1-.1-.6-.5-.6-.5 0-.1.1-.2.2-.2.1.1.5.4.6.5l.3-.4c.3-.3.2-.4 0-.6-.1-.1-.2-.1-.2-.2-.2-.1-.4-.1-.6 0-.1 0-.1.1-.2.1s-.2-.1-.2-.2c.1-.1.5-.4.6-.5.4.4 1 .9 1.7 1.3zM13.8 41.9c0-.1.1-.1.2-.1.1.4.2.6.4 1 0 .1-.1.1-.2.1v-.1c-.1-.1-.1-.2-.6-.2-.3 0-1.1.2-1.2.2-.3.1-.5.1-.4.4v.1c0 .1-.1.1-.2.1-.1-.4-.2-.6-.4-1 .1 0 .3-.1.4-.3.2-.2.9-.7 1.2-1-.2-.1-1.4-.2-1.5-.3-.2 0-.4-.1-.6 0 0-.2-.2-.7-.2-1 0-.1.2-.1.2 0v.1c.1.2.1.2.4.1.4-.1.9-.3 1.2-.4.4-.1.5-.2.5-.4V39c0-.1.2-.1.2 0 .1.6.2.9.3 1.2 0 .1-.2.1-.2.1v-.1c-.1-.2-.1-.3-.5-.1-.4.1-1.2.4-1.4.5.3.1 1.2.2 1.6.3.5.1.6.1.8.1 0 0 .1.1.1.2-.1 0-.3.2-.6.5s-1 .9-1.2 1c.3-.1 1.1-.2 1.3-.3.3-.1.6-.1.5-.4M55.3 39.5c.1-.1.2 0 .2 0v.1c0 .2.1.3.5.4s.8.2 1.1.2c.3.1.5.1.6-.1V40h.2c0 .2-.1.6-.2.8v.1c-.1 0-.1 0-.3.1-.1 0-1.9.9-2.1 1 .2.1.9.3 1.1.4.4.1.5.2.6-.1 0 0 0-.1.1-.1s.2 0 .2.1c-.1.4-.3.8-.4 1.1-.1 0-.2 0-.2-.1v-.1c.1-.2 0-.3-.4-.4-.3-.1-1.7-.6-1.8-.6 0 0-.1-.1 0-.2.4-.2 2.6-1.3 2.7-1.4-.2 0-1.1-.2-1.4-.3-.4-.1-.5 0-.6.1v.1c-.1 0-.2 0-.2-.1.2-.2.3-.8.3-.9zM10.4 31.8c.1 0 .3.1.6.2 0 0 1.3.8 1.5 1s.2.3.2.3v.1c.1.1.2.1.2 0s0-.6.1-.9c0-.1-.2-.1-.2 0v.1c0 .1-.1.1-.2 0s-.4-.3-.5-.3c0-.1.1-.8.1-.9h.5c.3.1.2.3.2.3v.1c0 .1.2.1.2 0 .1-.7.2-1.2.4-2.2-.3-.2-.6-.3-.7-.3s-.1.2-.1.2c.1 0 .1.1.1.1.3.2.3.3.2.5 0 .1 0 .2-.1.4 0 .2-.2.3-.4.2H12l.1-.7c-.1 0-.2-.1-.3 0l.1 1c-.1 0-.8-.1-.9-.1s-.1-.1-.1-.1c0-.1 0-.3.1-.5.1-.3.2-.3.3-.4h.3c.1-.1.1-.2 0-.2h-.7c-.1.6-.2 1-.3 1.6-.1.1-.1.2-.2.5zm.4-.3l.1-.1c.1 0 .9.1 1 .1 0 .2-.1.6-.1.7-.2-.1-.9-.6-1-.6 0-.1-.1-.1 0-.1zM48.2 54.9c-.1-.1-.2-.3-.2-.6 0 0-.3-1.5-.3-1.8s0-.3.1-.4l.1-.1c0-.1-.1-.2-.2-.2-.1.1-.4.3-.7.6 0 .1 0 .2.1.2s.1 0 .1-.1c.1 0 .1 0 .2.1 0 .1.1.5.1.6-.1.1-.6.5-.7.5 0 0-.2-.3-.3-.4-.2-.2 0-.3 0-.4l.1-.1c0-.1-.1-.2-.1-.2-.6.4-1.1.7-1.9 1.1.1.3.2.6.3.7s.2 0 .2-.1v-.2c0-.3.1-.4.2-.5s.2-.1.3-.2c.2-.1.3 0 .5.2l.4.4c-.1.1-.5.4-.6.4 0 .1.1.2.2.2.1-.1.5-.3.6-.4.1.1.5.6.6.7s0 .1-.1.1-.2.2-.4.3c-.3.2-.4.1-.5 0-.1 0-.1-.1-.2-.2-.1 0-.2.1-.2.2.1.1.3.4.4.5.6-.3.9-.5 1.4-.8.2.1.3.1.5-.1zm-.5 0h-.1c-.1-.1-.6-.7-.7-.8.1-.1.5-.4.6-.4 0 .3.2 1.1.2 1.2.1 0 0 0 0 0zM13.1 46c.5-.3 1.3-.7 1.5-.8.4-.2.4-.3.4-.5v-.1c0-.1.1-.1.2-.1.2.3.4.8.6 1.1 0 .1-.1.1-.2.1 0 0 0-.1-.1-.1-.1-.2-.2-.2-.6 0-.3.1-.8.4-1 .5-.4.2-.5.3-.4.5v.1c0 .1-.1.1-.2.1-.2-.4-.6-1-.6-1.1-.1-.1-.1-.2-.2-.4-.1-.3-.2-.8.4-1 .4-.2.6 0 .9.2.1-.2.3-.5.4-.8s.1-.4.1-.6V43c0-.1.1-.1.2-.1 0 .1.2.4.3.7l-.8 1.6h-.1c-.1-.1-.2-.3-.4-.3s-.3 0-.4.1c-.1 0-.2.1-.3.3s0 .3 0 .4.1.2.1.3h.2zM22.7 56c.2-.5.7-1.3.8-1.5.2-.4.2-.5 0-.6l-.1-.1c0-.1.1-.2.1-.2.3.2.8.5 1.1.6 0 .1-.1.2-.1.2h-.1c-.2-.1-.3 0-.5.4-.1.3-.4.8-.5 1-.2.4-.2.5 0 .6 0 0 .1 0 .1.1s-.1.2-.1.2c-.4-.2-1-.5-1.1-.6s-.2-.1-.3-.2c-.3-.2-.6-.6-.3-1.1.2-.3.5-.4.8-.3 0-.3 0-.6-.1-.9s-.1-.4-.2-.5l-.1-.1c0-.1.1-.2.1-.2.1 0 .3.2.6.4.1.3.2 1.4.2 1.6 0 0-.1 0-.1.1-.1-.1-.4-.2-.5-.1-.2.1-.2.2-.3.3-.1 0-.1.2-.1.3 0 .2.2.3.3.3.1.1.2.1.2.1.1.2.2.2.2.2zM14.9 26.2c0-.1.4-.8-.1-1.3s-1 .1-1.3.7c-.2-.2-.8-.8-1-.9 0-.1.4-1.3.4-1.4.1 0 .3.2.4.3-.1.2-.3 1-.4 1.1.1.1.2.2.3.2.1-.2.4-.8 1-.8.9 0 1.4.9.9 2.1 0 .2-.2.2-.2 0zM13.9 22.8c0-.1-.2-.5.1-1 .1-.2.3-.4.5-.4s.7.2.6.8c.2-.2.4-.3.6-.3.1 0 .7.1.8 1 .1.6-.2 1.2-.5 1.3s-.5-.2-.3-.5c.1-.1.3 0 .4-.1s.2-.7-.2-1c-.2-.2-.6-.3-.8 0-.1.1-.1.3-.1.5-.1.2-.3.1-.4 0 0-.2.1-.6.1-.9-.1-.2-.3-.4-.6-.2-.2.2-.1.5-.1.6.2.2 0 .2-.1.2zM45.5 11.1c0-.1.1-.3.2-.3s.2.1.2.1c.4.1.5.1.8-.6.2-.4.6-1.3.8-1.6s.4-.7 0-1c-.1 0-.1-.1-.2-.1 0-.1.1-.3.1-.3.7.3 1.4.7 1.9 1 0 .1-.1.3-.2.3s-.1-.1-.2-.1c-.4-.2-.6.2-.8.6-.3.6-.7 1.3-.8 1.6-.3.6-.3.7 0 1 .1 0 .1.1.2.1 0 .1-.1.3-.2.3-.4-.3-1.2-.8-1.8-1zM53.2 16.5c0-.1.2-.2.3-.3l.2.2c.3.2.4.2 1-.3.4-.3 1-1 1.3-1.2.3-.3.6-.5.4-.9l-.1-.1c0-.1.2-.3.3-.3.6.6 1.1 1.2 1.4 1.6 0 .1-.2.2-.3.2l-.1-.1c-.3-.3-.6 0-1 .3-.5.4-1.1 1-1.3 1.2-.5.4-.6.6-.4.9 0 .1.1.1.1.2s-.2.2-.3.2c-.4-.5-1.1-1.2-1.5-1.6zM55.3 51.3c.1 0 .3.1.3.2s-.1.1-.1.2c-.2.3-.2.4.4.9.4.3 1.1.9 1.4 1.1s.6.6.9.2l.1-.1c.1 0 .3.1.3.2-.5.7-1 1.2-1.4 1.6-.1 0-.3-.1-.3-.2l.1-.1c.3-.4 0-.6-.4-.9-.5-.4-1.1-.9-1.4-1.2-.5-.4-.7-.5-1-.2-.1 0-.1.1-.2.2-.1 0-.2-.1-.3-.3.6-.3 1.3-1.1 1.6-1.6zM34.6 61.6c.1.1.1.3 0 .4h-.2c-.4.1-.5.1-.5.9v1.8c0 .4-.1.8.4.9h.2c.1.1.1.3 0 .4-.8 0-1.6 0-2.1-.1-.1-.1-.1-.3 0-.4h.2c.5 0 .5-.4.5-.9 0-.7 0-1.4.1-1.8 0-.6 0-.8-.4-.9h-.2c-.1-.1 0-.3 0-.4.5.1 1.5.1 2 .1zM17.7 55.8c0 .1-.1.3-.2.3s-.1-.1-.2-.1c-.3-.2-.4-.2-.9.4-.3.4-.9 1.1-1.2 1.4-.2.2-.6.5-.2.8l.1.1c0 .1-.1.3-.2.3-.6-.5-1.2-1-1.6-1.4 0-.1.1-.3.2-.3l.1.1c.4.3.6 0 .9-.4.4-.5 1-1.1 1.2-1.4.4-.5.5-.6.3-1 0-.1-.1-.1-.2-.2 0-.1.2-.2.3-.3.4.7 1.2 1.3 1.6 1.7zM9.2 26.8c-.1 0-.3 0-.3-.1s0-.2.1-.2c.1-.4 0-.5-.7-.7-.5-.2-1.3-.5-1.7-.6s-.8-.3-1 .1c0 .1-.1.1-.1.2-.1.1-.3 0-.3-.1.3-.8.5-1.5.7-2 .1-.1.3 0 .3.1s0 .1-.1.2c-.1.3.3.4.7.6.6.2 1.3.5 1.7.6.6.2.8.2 1-.1 0-.1.1-.1.1-.2.1 0 .3 0 .3.2-.2.5-.5 1.4-.7 2zM57.4 22.1c-.7-1.2-1.5-2.4-1.9-2.9 0-.1.2-.2.3-.2 0 .1.1.1.1.1.3.3.4.3 1-.2.4-.3 1.2-.9 1.5-1 .3-.2.7-.4.5-.8 0-.1-.1-.1-.1-.2s.2-.2.3-.2c.5.6.9 1.3 1.2 1.7 0 .1-.2.2-.3.2l-.1-.1c-.3-.4-.7-.1-1 .1-.5.4-1 .7-1.5 1-.5.4-.6.4-.5.8 0 .1.1.2.2.4s.3.4.5.5.5.1.6.1.3-.1.4-.1.2.1.1.3c-.3.2-.7.3-1.3.5zM59.4 26.5c-.4-1.3-1.1-2.7-1.3-3.2.1-.1.2-.2.3-.2 0 .1.1.1.1.2.2.3.3.3 1 0 .4-.2 1.4-.6 1.6-.7.3-.2.8-.3.6-.7 0-.1 0-.1-.1-.2 0-.1.2-.2.3-.2.4.7.7 1.4.9 1.9 0 .1-.2.2-.3.2 0-.1-.1-.1-.1-.2-.2-.4-.6-.2-1 0-.6.3-1.1.5-1.6.7-.6.3-.7.3-.6.7 0 .1.1.3.2.4.1.2.2.4.4.6.2.1.5.2.6.2h.4c.1 0 .2.2.1.4-.5-.1-.9 0-1.5.1zM41.6 9.3c0-.4.1-.8.2-1.1.1 0 .3 0 .4.1 0 .4-.1 1.1.7 1.3.5.2.8 0 .9-.3.2-.4 0-.7-.5-1.2-.7-.7-.8-1.1-.8-1.4.1-.5.5-1.4 1.9-.9.6.2.9.4 1.1.6 0 .1-.1.8-.2 1-.1.1-.3 0-.4-.1 0-.1.2-.7-.5-1s-.9.1-1 .3c-.1.3.1.5.6 1.1.4.5 1 .9.7 1.7-.2.7-1.1 1-1.9.7-.9-.3-1.2-.8-1.2-.8zM39 61.5c.2.3.3.8.3 1.1-.1.1-.3.1-.4.1-.2-.4-.4-1-1.2-.9-.5.1-.7.4-.7.7 0 .4.4.6 1 .8 1 .3 1.2.6 1.3.9.2.5.1 1.5-1.3 1.6-.7.1-1 0-1.3 0-.1-.1-.2-.7-.2-1 .1-.1.2-.1.4-.1 0 .1.2.7 1 .7.7-.1.8-.5.7-.8s-.3-.4-1-.7c-.6-.2-1.3-.4-1.4-1.2-.1-.7.5-1.4 1.4-1.5.9 0 1.4.3 1.4.3zM14.8 53.3c-.2.4-.5.7-.7.9-.1 0-.3-.1-.3-.3.2-.4.6-.9.1-1.5-.4-.4-.7-.4-1-.2-.4.3-.3.7-.1 1.3.3.9.2 1.3 0 1.6-.3.4-1.2.9-2.1-.1-.4-.5-.6-.9-.7-1 .1-.1.5-.6.7-.7.1 0 .2.1.3.3-.1.1-.5.6 0 1.2.4.6.9.4 1 .2.2-.2.2-.5 0-1.2-.2-.6-.4-1.3.2-1.8s1.4-.4 2 .3c.6.5.6 1 .6 1zM21.1 12.2c-.1 0-.2-.2-.2-.3.1 0 .1-.1.2-.1.3-.2.3-.3 0-1-.2-.4-.7-1.3-.8-1.6-.2-.3-.3-.8-.8-.6-.1 0-.1 0-.2.1-.1 0-.2-.2-.2-.3.7-.4 1.4-.7 1.9-1 .1 0 .2.2.2.3-.1 0-.1.1-.2.1-.4.3-.2.6 0 1 .3.6.7 1.3.8 1.6.3.6.4.7.8.6.1 0 .1-.1.2-.1s.2.2.1.3c-.4.2-1.2.6-1.8 1zM24.4 10.3c-.3-.3-.4-.7-.5-1 .1-.1.2-.2.4-.2.3.3.6.9 1.4.6.5-.2.6-.5.5-.8-.1-.4-.5-.5-1.2-.6-1-.1-1.3-.3-1.5-.6-.3-.4-.5-1.4.9-1.9.6-.2 1-.2 1.2-.3.1.1.4.7.4 1-.1.1-.2.2-.3.2-.1-.1-.3-.7-1.1-.5-.7.2-.6.6-.5.8.1.3.4.3 1.1.4.6.1 1.3.1 1.6.9.3.7-.2 1.5-1 1.8s-1.4.2-1.4.2zM17.4 14.4c-.3-.2-.6-.6-.8-.8 0-.1.2-.2.3-.3.3.2.8.7 1.5.2.4-.3.4-.7.3-.9-.2-.4-.6-.4-1.3-.2-1 .2-1.4.1-1.6-.2-.4-.3-.8-1.2.3-2 .6-.4.9-.5 1.1-.6.1.1.5.5.7.8 0 .1-.1.2-.3.3-.1-.1-.5-.6-1.2-.2-.6.4-.4.8-.3 1 .2.3.4.2 1.2.1.6-.1 1.3-.3 1.8.4.4.6.3 1.5-.5 2-.6.4-1.2.4-1.2.4zM58.6 45.8c.1-.1.3 0 .3.1 0 0-.1.1-.1.2-.1.3 0 .5.6.8.5.3 1.2.6 1.6.8s.7.4 1 0c0-.1.1-.1.1-.2.1 0 .3 0 .3.1-.1.2-.4.9-.6 1.2 0 .1 0 .1-.1.2h-.5c-.1 0-3.3.7-3.7.8.3.2 1.3.9 1.6 1 .5.3.7.5 1 .1 0 0 .1-.1.1-.2.1 0 .3.1.3.2-.3.5-.7 1.1-1 1.5-.1 0-.3-.1-.3-.2 0 0 .1-.1.1-.2.2-.3.1-.4-.5-.8-.4-.3-2.4-1.6-2.6-1.7 0-.1-.1-.2 0-.3.7-.2 4.5-1.1 4.8-1.1-.3-.1-1.6-.7-2-.9-.6-.3-.8-.3-1 0-.1.1-.1.1-.1.2-.1 0-.3 0-.3-.2.5-.2.9-1.1 1-1.4zM7.9 32.9c-.1.1-.3.1-.4 0v-.2c0-.3-.2-.5-.9-.5-.6-.1-1.3-.1-1.8-.2s-.8-.1-.9.3v.2c-.1.1-.3.1-.4 0 0-.2.1-.9.1-1.3V31c.1 0 .2-.1.4-.2.1-.1 2.9-1.8 3.2-2-.3-.1-1.5-.4-1.8-.5-.6-.1-.8-.2-1 .2 0 .1 0 .1-.1.2s-.3 0-.3-.1c.1-.6.3-1.3.4-1.7.1-.1.3 0 .3.1v.2c0 .3 0 .4.8.6.5.1 2.8.7 3 .7.1.1.1.2.1.3-.6.4-3.9 2.5-4.1 2.6.3 0 1.7.2 2.2.2.7 0 .9 0 .9-.3v-.2c.1-.1.3 0 .4.1.1.4 0 1.4-.1 1.7zM13.2 19.2c-.1 0-.3-.1-.3-.2 0 0 .1-.1.1-.2.2-.3.1-.5-.4-.9s-1-.8-1.4-1.1-.6-.6-.9-.3c0 0-.1.1-.1.2-.1 0-.3-.1-.3-.2.1-.2.6-.7.8-1 0 0 .1-.1.1-.2.1 0 .2.1.5.1h3.8c-.2-.2-1-1.1-1.3-1.4-.4-.4-.6-.6-.9-.3 0 0-.1.1-.2.1s-.2-.1-.2-.3c.4-.4.9-.9 1.3-1.2.1 0 .2.2.2.3l-.1.1c-.2.2-.2.4.3.9.4.4 1.9 2.1 2.1 2.2 0 .1 0 .2-.1.3h-4.9c.2.2 1.4 1.1 1.7 1.4.6.4.7.4 1 .2l.2-.2c.1 0 .3.1.3.2-.5.5-1.1 1.2-1.3 1.5zM10.5 46.6c-.1 0-.3.1-.3.1 0 .1.1.1.1.2.1.4 0 .5-.6.8-.2.1-.4.2-.7.3l-1-2c.3-.1.5-.2.7-.3.7-.3.8-.3 1 .1 0 0 .1.1.1.2.1 0 .3-.1.3-.2-.3-.6-.6-1.4-.7-1.9-.2 0-.4.1-.4.1 0 .1 0 .2.1.2 0 .4-.1.5-.7.8-.3.1-1.1.4-1.7.7-.4.2-.8.3-1-.1 0 0 0-.1-.1-.2-.1 0-.3 0-.3.1.2.5.4 1.2.8 1.9.1 0 .3 0 .3-.1v-.2c-.1-.4.2-.5.6-.7.1 0 .3-.1.6-.2l1 2.1-.6.3c-.4.2-.7.4-1 0 0 0 0-.1-.1-.2-.1 0-.3.1-.3.2.2.5.6 1.1 1 1.8.1 0 .3-.1.3-.2s0-.1-.1-.1c-.2-.4.1-.6.6-.8.3-.1 1.2-.6 1.6-.9.6-.3.8-.3 1 0 0 0 .1.1.1.2.1 0 .3-.1.3-.2-.3-.5-.7-1.3-.9-1.8zM52.4 14.7c-.1.2-.2.3-.3.5-.3-.2-.9-.4-1.5-.9-.5-.4-1.1-1.1-1.1-2.1.1-.9.7-1.7 1.4-2 1-.4 1.9 0 2.5.5.8.6 1 1 1.1 1.1-.2.3-.4.6-.7 1-.1 0-.3-.1-.3-.2.1-.2.2-.4.2-.7s-.2-.6-.6-.9c-.5-.4-1.7-.7-2.5.6-.9 1.3-.1 2.1.2 2.3.2.1.2.2.3.3.3.2.4.1.6 0 .1-.1.1-.2.2-.3.2-.3.2-.3 0-.6-.1-.1-.2-.2-.2-.3s.1-.3.3-.3c.5.5 1.1.9 1.5 1.2 0 .1-.1.3-.2.3s-.1-.1-.2-.1c-.2-.1-.3-.1-.5.2-.1.3-.2.4-.2.4zM10.5 23.5c-.1 0-.3-.1-.3-.2s0-.1.1-.1c.1-.3.1-.5-.6-.9-.5-.3-1.2-.6-1.5-.8-.5-.3-.7-.4-1 0 0 .1-.1.1-.1.1-.1 0-.3-.1-.3-.2.4-.8 1.1-2 1.9-3.2.3.1.7.4 1 .5 0 .2 0 .3-.2.4-.1 0-.2-.1-.4-.1s-.4 0-.7.3c-.2.1-.4.5-.5.7s0 .2.1.3 1 .6 1.1.6l.6-1.1c.2 0 .3.1.4.2l-.6 1.1.7.4c.6.4.7.2.9-.2.1-.2.2-.3.2-.4.2-.4.1-.6-.1-1-.1-.1-.1-.2-.2-.2 0-.1.1-.3.3-.3.1.1.8.7.9.9-.4.9-1.1 2.1-1.7 3.2zM48.9 57.3c.1 0 .2.2.2.3-.1 0-.1.1-.1.1-.3.2-.4.4 0 1.1.3.5.7 1.1.9 1.5.3.5.4.7.8.5.1 0 .1-.1.1-.1.1 0 .2.2.2.3-.7.5-1.9 1.2-3.3 1.8-.2-.3-.4-.7-.6-1 .1-.1.2-.2.3-.2.1.1.1.2.3.3.1.1.3.3.7.1.3-.1.7-.4.9-.5s.2-.2.1-.3-.6-1-.6-1.1l-1.1.6c-.1-.1-.2-.2-.2-.4l1.1-.6s-.4-.7-.4-.8c-.3-.6-.5-.5-.9-.3-.2.1-.3.2-.4.2-.3.2-.4.5-.4.9v.3c-.1.1-.2.2-.4.1-.1-.2-.3-.9-.4-1.2 1-.3 2.1-.9 3.2-1.6zM60.9 29.1c1.2-.8 1.4-.9 2.4-1.5.4-.2.5-.3.6 0 0 .1 0 .1.1.2s.3 0 .3-.1c-.2-.6-.3-1.3-.6-2-.1-.1-.3 0-.3.1v.2c0 .4-.1.5-.5.8-.2.2-3 1.9-3 1.9-.1 0-.1.1 0 .1 0 0 .3.4.4.6 1.1.1 2.8.4 3.4.6.6.1.8.3.8.4v.2c.1.1.3.1.4 0-.1-.5-.2-1.2-.3-1.7-.1-.1-.3 0-.4 0v.2c0 .2 0 .4-.5.3-.8.1-1.9-.1-2.8-.3zM60.4 43.2c1.5-.1 1.6-.1 2.8-.1.4 0 .6 0 .5.3v.2c.1.1.3.2.3.1.2-.6.4-1.3.5-2-.1-.1-.3-.1-.3-.1 0 .1 0 .1-.1.2-.1.3-.3.4-.8.4-.3 0-3.5.2-3.6.2s-.1.1-.1.1v.7c.9.7 2.2 1.8 2.7 2.2s.5.6.5.8c0 .1-.1.2-.1.2.1.1.2.2.3.1.2-.5.4-1.2.6-1.6 0-.1-.2-.2-.3-.1 0 .1 0 .1-.1.2-.1.2-.2.3-.6 0-.7-.5-1.5-1.2-2.2-1.8zM51.9 56c1.3.7 1.4.8 2.4 1.4.4.2.5.3.3.6l-.1.1c0 .1.1.3.2.3.5-.4 1-.9 1.5-1.4 0-.2-.2-.2-.2-.3-.1 0-.1.1-.2.1-.3.2-.5.2-.9-.1-.3-.2-3-1.7-3.1-1.8h-.1l-.3.6c.4 1.1.9 2.6 1.1 3.3.2.6.1.8 0 .9s-.1.1-.2.1c0 .1.1.3.2.3.4-.3 1-.7 1.4-1 0-.1-.1-.3-.2-.3s-.1.1-.2.1c-.2.1-.3.2-.5-.3-.5-.8-.8-1.8-1.1-2.6zM44.4 63.9c-.3-.8-.8-2.2-.9-2.5-.2-.6-.3-.8-.7-.7h-.2c-.1 0-.1-.2-.1-.3.6-.2 1.3-.5 1.9-.7.1.1.2.2.1.3-.1 0-.1.1-.2.1-.3.2-.3.3-.1 1 .2.5.5 1.4.6 1.7.3.7.3.8.7.7.1 0 .1 0 .2-.1.1 0 .2.3.1.3-1.1.4-1.7.6-1.9.7s-.4.1-.6.2c-.5.1-1.3.1-1.6-.8-.2-.6.1-1 .5-1.3l-1.2-.9c-.4-.2-.6-.3-.9-.3h-.2c-.1-.1-.1-.2-.1-.4.1 0 .7-.1 1.2-.3l2.1 1.4v.2c-.2.1-.5.3-.6.5-.1.3 0 .5.1.6 0 .2.2.4.4.5s.5.1.7 0c.2 0 .3-.1.4-.1.2.2.3.2.3.2zM25.6 60.2c-.2.1-.2.3-.1.3s.1 0 .1.1c.3.2.2.2-.1.6-.2.2-.2.3-.3.3-.2-.1-1.2-.5-1.4-.5v-.5c0-.3 0-.6.3-.4.1 0 .1 0 .1.1.1 0 .2-.2.1-.3-.3-.1-.9-.4-1.7-.7-.1 0-.2.2-.2.3.1 0 .1.1.2.1.4.2.3.6.3.9s-.1 3.5-.1 3.6l.2-.1h.6c.2-.2 1.9-2.1 2.3-2.6.5-.5.6-.5.8-.5h.2c.1-.1.2-.3.1-.4-.5 0-1.2-.3-1.4-.3zm-1.9 3l.1-1.9 1.2.4-1.3 1.5zM8.6 41.5c-.1-.1-.3 0-.4.1v.2c0 .3-.1.3-.5.3-.3 0-.4 0-.5-.1 0-.2-.3-1.3-.3-1.5.1-.1.1-.1.4-.3s.5-.3.6 0v.2c.1.1.3 0 .4-.1-.1-.3-.2-.9-.3-1.8-.1-.1-.3 0-.4 0v.2c0 .4-.4.6-.6.7-.3.2-3 1.8-3.1 1.9-.1 0 0 .1 0 .1s.3.4.3.5c.2 0 2.8.4 3.4.5.7.1.8.3.9.4 0 .1.1.2.1.2.2.2.4.1.4 0 0-.2-.3-1.2-.4-1.5zm-3.6.1l1.6-1 .3 1.2-1.9-.2zM61.2 33.9c-.1.1-.3.1-.4 0 0-.7-.1-1.1-.1-1.7.1-.1.2-.2.4 0v.2c.1.2.1.4.8.5.5 0 1.7.1 2 .1.4 0 .9 0 .9-.5v-.2c.1-.1.2-.1.4 0 .1.6.1 1 .1 1.7-.2 0-.4 0-.8.2-.5.2-1.7.8-2.3 1.1.3.2 2.1 1 2.2 1.1.2.1.6.3.9.3 0 .5-.1 1.1-.1 1.6-.1.1-.3.1-.4 0v-.2c0-.3 0-.4-.6-.4h-2.1c-.6 0-.9.1-.9.4v.3c-.1.1-.3 0-.4 0 .1-1 .1-1.3.2-1.9.1-.1.3-.1.4 0v.2c0 .2 0 .4.7.3.6 0 2 0 2.4-.1-.4-.2-1.7-.8-2.4-1.1s-.9-.4-1.1-.5c-.1-.1-.1-.2 0-.3.1 0 .6-.2 1.1-.5.6-.3 2.1-.9 2.3-1-.5 0-1.8 0-2.2-.1-.5 0-.9 0-.9.4M30.5 64.5c0 .1-.1.3-.3.4-.1.1-.4.2-.8.2-.1 0-.3-.1-.6-.1 0 0 .4-2.1.5-2.6.1-.7.2-.8.6-.8h.2c.1-.1.1-.3.1-.4-.6-.1-1.5-.3-2-.4-.1.1-.1.3-.1.3.1 0 .2.1.2.1.4.1.4.3.2 1-.1.3-.5 2.6-.5 2.6-.3-.1-.6-.1-.7-.2-.4-.1-.4-.4-.4-.5v-.4c-.1-.1-.3-.1-.4-.1 0 .2-.2 1-.2 1.2 1.6.4 2.5.6 4 .8 0-.1.4-1 .5-1.1h-.3zM20.5 61.4c-.1.1-.2.2-.4.3s-.5.1-.8-.1c-.1-.1-.3-.2-.5-.3 0 0 1.1-1.8 1.4-2.2.4-.6.5-.7.8-.6 0 0 .1 0 .2.1.1 0 .2-.2.2-.3-.5-.3-1.3-.8-1.7-1.1-.1 0-.2.2-.2.3.1.1.1.1.2.1.3.3.2.4-.1 1-.2.3-1.4 2.2-1.4 2.2-.3-.2-.5-.3-.6-.4-.3-.2-.2-.6-.2-.7s.1-.2.1-.3-.2-.2-.3-.2c-.1.1-.5.8-.6 1 1.3.9 2.1 1.4 3.5 2.2.1 0 .7-.7.8-.8-.1-.1-.3-.2-.4-.2zM7.5 35.3v.2c0 .4-.1.6-.7.6H6v-1.2c-.1-.1-.3-.1-.4 0v1.2c-.1 0-1.2.1-1.4.1-.1 0-.2 0-.2-.2v-.9c0-.7.9-.8 1.1-.9.1-.1 0-.2-.1-.4-.4 0-1.1.1-1.5.1 0 1.6 0 2.6.1 3.8H4v-.2c0-.5.3-.5.9-.5.3 0 1.1 0 1.8-.1.8-.1.9.1.9.4v.1H8c-.1-.7-.1-1.5-.1-2.2-.1 0-.3.1-.4.1zM21.9 15.3c-.4.1-.5.7-.5.9s-.1.7-.1.7-.1.1-.2 0c-.2 0-.4-.3-.4-.5V16c.1 0 .2.1.2 0 .1-.1.2-.3.2-.5 0-.1-.1-.3-.2-.3h-.2V15c0-.1-.1-.1-.1-.2h-.3c-.1 0-.2.1-.3.1-.1.1-.1.1-.1.2s.1.1.1.2c-.1 0-.2 0-.2.1-.1.1-.1.2-.1.4.1.3.2.4.3.5.1 0 .1 0 .2-.1 0 .1.1.2.1.4s0 .6-.2.7c-.1 0-.1.1-.2 0l-.3-.6c-.3-.4-.5-.7-.8-.7-.1 0-.2.1-.3.2s-.1.5.1.7.4.2.5.1c.2.3.3.5.5 1 .1.3.2.7.3 1s.3.4.7.5c0 0 .1 2.4.9 7.1 0 .2.5.2.7.2s.6-.2.5-.5c-.8-4.7-1.2-7-1.2-6.9.2-.1.5-.3.5-.7v-1.1c0-.4 0-.7.1-1.1.2 0 .3-.1.4-.3s.1-.5 0-.7c-.3-.1-.4-.2-.6-.2zM21.3 31.8c.2.2.7.5 1.4.4s1-.4 1.2-.8c.2.2.6 1.9-.9 2.1-1.5.3-1.8-1.2-1.7-1.7z"/><path class="st1" d="M24.4 28.9c-.1-.1-.1-.1-.3-.2.1-.1.1-.2.2-.3.1-.2.1-.4 0-.7-.1-.2-.3-.2-.4-.2 0-.1 0-.1.1-.2 0-.2 0-.3-.1-.5-.2-.2-.7-.2-.8-.1-.2.3-.6.5-.9.5-.4.1-.7 0-1.1-.2-.3-.1-.4-.2-.6 0s-.3.4-.3.8c0 .3.3.5.3.7.1.3-.1.4-.1.7 0 .2.2.3.3.5s0 .3 0 .6c0 .2.3.4.3.5s0 .4.1.5.3.2.5.2c.4.1 1 .1 1.7-.2.3-.1.8-.4 1-.8.1-.2 0-.5-.1-.6.2-.1.2-.2.3-.3 0-.3 0-.6-.1-.7zM22.9 30c-.1.1-.3.1-.3.1 0 .1.1.2.1.3 0 0-.3.1-.4 0s-.1-.2-.1-.2h-.3c-.1 0-.2-.3-.1-.4s.2 0 .3-.1c-.1-.1-.1-.2 0-.3 0 0 .3-.1.4 0 .1 0 .1.2.1.3.1 0 .3-.1.3 0 0 0 .1.3 0 .3zM29.9 17c.1-.7.4-1.4.5-1.7 0-.1-.1-.3-.2-.3s-3.8.9-6.7 2.8c-.6.4-.1 1.7.3 2.7 1.3 3.2 2.9 2.7 3.4 5.2.2.8.9 3.9 1 4.3.3.8 1 1.4 1.9 1.3-.3-4.1-.6-10.6-.2-14.3zM26 19.5c-.1.4-.5 1.3-.7 1.2-.3 0-.5-1-.5-1.4 0-.3.1-.4.2-.4s.2.3.2.8h.3c.1-.5.3-.7.4-.7.1.1.2.3.1.5zm1.3-2.6c0-.2.1-.3.2-.3s.1.3.1.8h.2c.2-.5.4-.6.5-.6.1.1.1.2 0 .5s-.6 1.1-.8 1-.2-1-.2-1.4zm1.3 4.7c-.1.4-.7 1.3-.9 1.3-.3-.1-.4-1.2-.4-1.6 0-.3.1-.4.2-.4s.2.4.2.9h.3c.2-.6.5-.8.5-.7.2 0 .2.3.1.5zM45.7 17.8c-3.3-2.1-6.9-2.8-7-2.8s-.2.2-.2.3c.1.3.4 1 .5 1.7.4 3.7 0 10.2-.3 14.2.9.1 1.6-.5 1.9-1.3.1-.4.8-3.5 1-4.3.5-2 3.1-2.8 3.7-5 .5-1.1 1-2.4.4-2.8zm-5.2-1c.1 0 .3.1.5.6h.2c-.1-.4 0-.7.1-.8.1 0 .2.1.2.3.1.3 0 1.3-.2 1.4s-.7-.7-.8-1c-.1-.2-.1-.4 0-.5zm.8 6.7c-.2.1-.8-.9-.9-1.3-.1-.3-.1-.5 0-.5s.4.1.5.7h.3c0-.5.1-.9.2-.9s.2.1.2.4c.1.4 0 1.5-.3 1.6zm2.5-2.6c-.2 0-.6-.8-.7-1.2-.1-.2 0-.4.1-.5.1 0 .3.2.4.7h.3c0-.5.2-.8.3-.8s.2.1.2.4c-.1.4-.3 1.4-.6 1.4zM37.1 10.6s0-.6-.6-.9v-.1s.6-.1.9.2v.2c.4 1-.3 1.4-.3 2.2-.8-.5-1.5-.5-1.5-.5l-.4-1.1s.2 0 .6-.1c.5 0 .9-.1 1.3.1zM34.3 7.1c-1.2 0-2.4.1-3.2.5-.1-.3-.4-1.8-.9-2.4-.1-.1-.3-.3-.3-.4 0 0-.1-.1 0-.2.1 0 .2-.1.3 0 .2 0 .3.1.3.3h.1v-.3c0-.1.2-.1.4.1 0 .2.1.3.1.4s.1.2 0 .3h-.3v.1c.1.2.5.4.9.4.5-.1.6-.3.5-.6l-.1.1c-.1 0-.2 0-.3-.2s-.1-.3 0-.4c0-.1.2-.1.4 0v-.1c-.2-.1-.3-.2-.3-.3s.1-.2.3-.3c.3-.1.4.1.5.2 0 .1 0 .3-.1.4l.1-.1h.1c.1 0 .2 0 .2.3.1.3-.1.4-.2.4s-.2 0-.2-.1c.2.4.4.6.9.5.4 0 .7-.3.7-.8 0 0-.1.1-.2.1s-.2-.1-.3-.3 0-.3.1-.4c.1 0 .2 0 .3.1-.1-.2-.2-.3-.2-.4s.2-.2.4-.2c.3 0 .4.1.4.2s0 .2-.1.3c0 0 .2-.1.3-.1s.2.2.1.4c0 .2-.1.3-.3.3-.1 0-.2-.1-.2-.1 0 .5.3.7.7.8.4 0 .7-.2.9-.5-.1 0-.2.1-.2.1-.1 0-.3-.1-.2-.4s.1-.3.2-.3h.1s.1 0 .1.1c-.1-.1-.2-.3-.1-.4 0-.1.1-.2.4-.2.3.1.3.2.3.3s0 .3-.3.3v.1c.2-.1.3 0 .4 0v.4c-.1.2-.3.2-.3.2-.1 0-.1-.1-.1-.1 0 .3.1.6.5.6.4.1.7-.2.9-.4v-.1c-.1.1-.2.1-.3 0s-.1-.2 0-.3c0-.1.1-.2.2-.3.2-.2.3-.1.4-.1v.3h.1c0-.2.1-.3.3-.3h.3c.1 0 0 .1 0 .2 0 0-.3.3-.3.4-.5.6-.8 2.1-.9 2.4-.8-.4-2-.5-3.3-.5"/><path class="st1" d="M33.6 13.5c.3 0 .6-.4.6-.4h.3s.2.4.5.4c1.2.1 2.1.3 2.4.5.3-.4.2-.9-.5-1.3-.2-.1-.9-.4-2-.4-.6.6-1.3-.2-2 .1.3-.3.6-.6.9-.6 0 0 .1.1.3.2s.6 0 .7-.2c.1-.1-.3-2.4-.3-2.4s1-.6 1.8-.6 1 .5 1 .5c.4-1.6-1.7-1.5-3.1-1.5-3.9 0-2.9.8-2.8 2.1 0 .4-.6.7 0 2 .1.2.2.4.2.8-.5.3-.7.8-.4 1.3.6-.3 1.6-.4 2.4-.5m.5-4.1l-.2 1.2s-.2-.1-.7-.1H32c0-.3.2-.7.7-.8v-.1l-.8-.2c.5-1.2 1.9-.1 2.2 0zM37.1 14.5c-1.9-.4-3.7-.4-5.6 0-.3 1.4-.8 4.2-.1 5 .2.2 1.2.6 2.3.4.3-.2.3-1.4.3-2 .1-.8.1-.9.2-.9h.3c.1.1.1 2.7.5 2.9.9.3 2.3 0 2.5-.4.5-.7 0-4.2-.4-5zm-2.8 1.1c-.9 0-1.2-.3-1.2-.8 0 0 .2.2 1.2.2.9 0 1.2-.2 1.2-.2 0 .6-.3.8-1.2.8zM34.3 39.8c-3 0-6.4.3-7.8.6-.3-.7-1.2-2.8-2.3-4.1l-.8-.8c-.1-.1-.2-.3 0-.4s.5-.1.8-.1c.4.1.6.3.7.7 0 0 .1.1.2.1-.1-.3-.1-.5.1-.7.1-.1.4-.3.9.1.2.2.3.4.4.6.1.3.2.5-.1.7-.2.1-.4.1-.6 0v.2c.3.4 1.2 1 2.1.8 1.1-.2 1.4-.8 1.3-1.4l-.1-.1c-.1.1-.2.2-.4.2-.1 0-.5 0-.8-.5-.2-.4-.2-.7-.1-.8s.4-.2.9-.1v-.1c-.6-.2-.7-.5-.7-.7s.1-.5.8-.6c.8-.1 1 .2 1.1.4s0 .6-.3.8l.1.1c.1-.1.2-.1.3-.2s.2-.1.3-.1c.2 0 .5.1.6.6.2.7-.3.9-.5.9-.1 0-.4 0-.5-.1l-.1.1c.4.8 1.1 1.2 2.2 1.2 1-.1 1.7-.6 1.7-1.7h-.1s-.2.3-.5.3-.6-.2-.7-.7.1-.8.3-.9c.3-.1.6.1.7.2l.1-.1c-.2-.2-.4-.4-.3-.7s.4-.5 1-.5 1 .2 1 .5c.1.2-.1.4-.3.7l.1.1c.1-.1.4-.3.7-.2s.5.4.3.9c-.1.4-.4.7-.7.7s-.5-.2-.5-.3h-.1c0 1.1.7 1.6 1.7 1.7 1.1.1 1.8-.4 2.2-1.2 0 0 0-.1-.1-.1-.1.1-.4.1-.5.1s-.6-.1-.5-.9c.1-.6.4-.6.6-.6.1 0 .2 0 .3.1s.2.1.3.2l.1-.1c-.3-.3-.4-.7-.3-.8.1-.2.3-.5 1.1-.4.7.1.8.4.8.6s-.1.6-.7.7v.1c.5-.1.8-.1.9.1.1.1.1.4-.1.8-.3.5-.7.5-.8.5-.2 0-.3-.2-.4-.2 0 0-.1 0-.1.1-.1.7.2 1.3 1.3 1.4.9.1 1.8-.4 2.1-.8v-.2c-.2.1-.5.1-.6 0-.2-.2-.1-.4-.1-.7.1-.2.2-.4.4-.6.5-.4.8-.3.9-.1.1.1.1.4.1.7 0 0 .1-.1.2-.1.1-.5.3-.7.7-.7.3-.1.6 0 .8.1s.1.3 0 .4l-.8.8c-1.2 1.3-2 3.3-2.3 4.1-1.1-.2-4.6-.6-7.6-.6zM32 53.5c.2 0 .3-.1.4-.3h-.6c.1.2.1.3.2.3zM32.2 47.9h-.6c0 .2.1.3.2.3s.2-.1.4-.3zM37.7 49.7h.1c.4 0 .7-.2.7-.7s-.5-.7-.8-.7c-.9 0-.8 1-1.8 1.1h.5c.8 0 1.1 0 1.3.3z"/><path class="st1" d="M34.4 40.9c-4.2 0-6.7.4-7.6.6 0 .7.2 6.5.4 11 .3 5.4 3.1 7.1 7.2 7.1 3.8 0 6.9-.9 7.2-7.1.2-4.5.4-10.3.4-11-1-.2-3.5-.6-7.6-.6zm.7 1.3c.3 0 .3.2.3.3h.2c0-.1 0-.3.3-.3.4 0 .4.2.4.3 0 .4-.6.5-.8.7h-.1c-.2-.1-.8-.3-.8-.7.1-.1.1-.3.5-.3zm-4 .4h.3l-.1-.8h.1c.2.2.3.4.3.4h.1c0-.2.2-.4.2-.4h.1c.1.2.1.4.1.4h.1s.1-.3.3-.4h.1l-.1.6c.3 0 .9 1 .9 1.8.3-.1 1.5-.1 1.6-.1-.9-.1-1.5-.5-1.5-1.6h.2c.5.1.7.4.7.6s-.1.3-.2.3c0 .2.3.4.9.4 1.3 0 1.2-1.4 2.8-1.4.6 0 1.4.2 1.4 1.2s-1.2 1.1-1.4 1.1c.2.2-.1.6.5.6.5 0 1.2-.2 1.4-.2.4 0 .2.5.5.9.3.3.3.3.3.4s-.1.2-.2.3v-.1h-.1s-.1 0-.2-.2c-.1 0-.2.1-.2.1v.2c0 .1-.2.2-.2.2v.2c-.1 0-.2-.1-.2-.2v-.2s0-.1-.1-.1h-.1s0 .2-.2.2H39v.2c-.1-.1-.1-.1-.1-.2 0-.2.2-.2.2-.3 0 0 0-.1-.1-.1H38.7c-.1.1-.1.1-.1.2 0-.1-.1-.1-.1-.2s.2-.3.4-.3h.2c.1 0 .3-.2.3-.3-.4 0-1.5.4-2.5.4-1.4 0-.3-1.8-1.4-1.8s-1.4 1.2-2.6 1.2c-.4 0-.7-.1-.9-.1 0 .4 0 .5-.3.5s-1.1.1-2.6.1c-.1.5-.2.6-.4.6-.1 0-.2 0-.3-.1.1 0 .2 0 .2-.1l-.1-.1s0-.1.1-.1h-.1c-.2 0-.4.3-.6.3-.1 0-.2-.1-.2-.2-.1 0-.1.1-.2.1 0-.2 0-.3.3-.3.2 0 .2 0 .2-.1V46h-.2c-.1 0-.2-.1-.2-.1s-.1 0-.2.1c0-.2.1-.3.3-.3s.1 0 .3.1v-.1c0-.1-.1-.1-.2-.2-.1 0 0-.2-.2-.2-.1 0-.2.1-.2.1 0-.1.2-.4.4-.4.4 0 .4.5.9.5.7 0 1.8-.1 2-.2-.1-.1-.3-.3-.3-.5s.2-.6.3-.8h-.1c-.1 0-.2 0-.2-.2s.1-.3.1-.3h.5c0 .1.1.2.4.2s.4-.1.4-.3c0-.4-.2-.5-.5-.5s-.3 0-.3.1h-.2c-.1-.2-.2-.3-.2-.5 0 .1.1.1.5.1zm3.1 4.3h-.1c-.3 0-.2.5-.6.2-.1 0-.1.1 0 .2-.1-.1-.1-.2-.1-.3.1-.1.3-.2.3-.2l-.1-.1c-.1 0-.3.2-.4.1v-.1s-.1 0-.2.1c0-.1.1-.2.2-.3.1 0 .3 0 .3-.1-.1-.1-.2.1-.3-.1-.1 0-.1 0-.2.1 0-.2.2-.3.4-.3s.5.2.7.2h.6c.2 0 .1-.1.1-.3-.1-.4 0-.8.4-1 .2-.1.5-.2.8-.1.1.1.1.2.1.3v.5c-.2 0-.4.1-.5.2-.1.2.1.4.1.6s-.1.2-.2.2h-.7v.1c0 .1-.1.2-.2.3s-.3.1-.4.1c.1 0 .1-.1.1-.1-.2-.1-.1-.2-.1-.2zm.9.6c.3 0 .3.2.3.3h.2c0-.1 0-.3.3-.3.4 0 .4.2.4.3 0 .4-.6.5-.8.7h-.1c-.2-.1-.8-.3-.8-.7.1-.1.1-.3.5-.3zm-4.5 3.2c-.2-.1-.2-.1-.3-.2-.3-.3-.4-.8-.6-1.1s-.4-.5-.5-.6h-.4c-.1 0-.4 0-.5-.3.1 0 .1.1.2.1 0-.1.1-.1.1-.1H28.9c0-.1-.1-.2-.3-.2s-.3-.2-.3-.3h-.2c.1-.1.3-.2.4-.2.2 0 .4.2.4.2.1 0 .1-.1.1-.1l-.2-.2-.1-.1v-.1c-.1-.1-.1-.1-.2-.1.2-.1.2-.1.3-.1.3 0 .4.3.4.4.1 0 .1 0 .1-.1v-.1c0-.1 0-.1.1-.2 0-.1-.1-.1-.1-.1h.2c.1 0 .3.1.3.3s-.1.4-.1.5c0 .2.8 1.3 1.1 1.6-.2.3-.5.8-.2 1.1zm-.8-2.6h.2c.4 0 .4.6 1 .6.2 0 .2-.1.4-.1.1 0 .2 0 .2.2 0 .1-.1.2-.4.2-1.1 0-.8-.6-1.4-.9zm.2-5.3c.4 0 .4.6 1 .6.2 0 .2-.1.4-.1.1 0 .2 0 .2.2 0 .1-.1.2-.4.2-1 0-.8-.6-1.4-.9h.2zm-1.6-.4c.2 0 .4.2.4.2.1 0 .1-.1.1-.1 0-.1-.1-.1-.2-.2l-.1-.1v-.1c-.1-.1-.1-.1-.2-.1.2-.1.2-.1.3-.1.3 0 .4.3.4.4.1 0 .1 0 .1-.1v-.1c0-.1 0-.1.1-.2 0-.1-.1-.1-.1-.1h.2c.1 0 .3.1.3.3s-.1.4-.1.5c0 .2.8 1.3 1.1 1.6-.1.2-.4.7-.1 1-.2-.1-.2-.1-.3-.2-.3-.3-.4-.8-.6-1.1s-.4-.5-.5-.6h-.4c-.1 0-.4 0-.5-.3.1 0 .1.1.2.1 0-.1.1-.1.1-.1H28.9c0-.1-.1-.2-.3-.2s-.3-.2-.3-.3h-.2c.1 0 .2-.1.3-.1zm-.4 1.5c.3 0 .3.2.3.3h.2c0-.1 0-.3.3-.3.4 0 .4.2.4.3 0 .4-.6.5-.8.7h-.1c-.2-.1-.8-.3-.8-.7.1-.1.1-.3.5-.3zm-.4 5.6c0-.1 0-.3.4-.3.3 0 .3.2.3.3h.2c0-.1 0-.3.3-.3.4 0 .4.2.4.3 0 .4-.6.5-.8.7h-.1c-.1-.2-.7-.3-.7-.7zm.6 2.2c.2 0 .2 0 .2-.1v-.1h-.2c-.1 0-.2-.1-.2-.1s-.1 0-.2.1c0-.2.1-.3.3-.3.1 0 .1 0 .3.1v-.1c0-.1-.1-.1-.2-.2-.1 0 0-.2-.2-.2-.1 0-.2.1-.2.1 0-.1.2-.4.4-.4.4 0 .4.5 1 .5.7 0 1.6-.1 1.8-.2-.1-.1-.3-.3-.3-.5s.2-.6.3-.8h-.1c-.1 0-.2 0-.2-.2s.1-.3.1-.3h.2c0 .1.1.2.4.2s.4-.1.4-.3c0-.4-.2-.5-.5-.5s-.3 0-.3.1h-.2c-.1-.2-.2-.3-.2-.5s.1-.2.5-.2h.3l-.1-.8h.1c.2.2.3.4.3.4h.1c0-.2.2-.4.2-.4h.1c.1.2.1.4.1.4h.1s.1-.3.3-.4h.1l-.1.6c.3 0 .9 1 .9 1.8.3-.1 1.5-.1 1.6-.1-.9-.1-1.5-.5-1.5-1.6h.2c.5.1.7.4.7.6s-.1.3-.2.3c0 .2.3.5.9.5 1.3 0 1-1.4 2.7-1.4.6 0 1.4.2 1.4 1.2S38.3 50 38 50c.2.2-.2.8.4.7.5-.1 1.1-.3 1.4-.4.4-.1.2.5.6.8.3.2.3.3.3.4s0 .3-.2.3v-.1h-.1s-.1 0-.2-.1c-.1 0-.2.1-.2.2s0 .1.1.2c0 .1-.1.2-.2.2v.2c-.1 0-.2-.1-.2-.2V52s0-.1-.1-.1h-.1s0 .2-.2.3h-.2v.2c-.1 0-.1-.1-.1-.2 0-.2.1-.2.1-.3s-.1-.1-.1-.1c-.1 0-.1.1-.2.1h-.1c0 .1-.1.1-.1.2-.1-.1-.1-.1-.1-.2s.1-.3.3-.3h.2c.1 0 .3-.2.3-.3-.4.1-1.5.5-2.5.5-1.4 0-.3-1.8-1.4-1.8s-1.4 1.2-2.6 1.2c-.4 0-.7-.1-.9-.1 0 .4 0 .5-.3.5s-.9.1-2.4.1c-.1.5-.2.6-.4.6-.1 0-.2 0-.3-.1.1 0 .2 0 .2-.1l-.1-.1s0-.1.1-.1h-.1c-.2 0-.4.3-.6.3-.1 0-.2-.1-.2-.2-.1 0-.1.1-.2.1.3-.3.4-.4.6-.4zm6 .5h-.1c-.3 0-.2.5-.6.2-.1 0-.1.1 0 .2-.1 0-.1-.2-.1-.3.1-.1.3-.2.3-.2s0-.1-.1-.1-.3.2-.4.1V52s-.1 0-.2.1c0-.1.1-.2.2-.3.1 0 .3 0 .3-.1-.1-.1-.2.1-.3-.1-.1 0-.1 0-.2.1 0-.2.2-.3.4-.3s.5.2.7.2h.6c.2 0 .1-.1.1-.3-.1-.4 0-.8.4-1 .2-.1.5-.2.8-.1.1.1.1.2.1.3v.5c-.2 0-.4.1-.5.2-.1.2.1.4.1.6s-.1.2-.2.2h-.7v.1c0 .1-.1.2-.2.3s-.3.1-.4.1c.1 0 .1-.1.1-.1-.2-.1-.1-.2-.1-.2zm.9.6c.3 0 .3.2.3.3h.2c0-.1 0-.3.3-.3.4 0 .4.2.4.3 0 .4-.6.5-.8.7h-.1c-.2-.1-.8-.3-.8-.7.1 0 .1-.3.5-.3zM31 56c-.1-.1-.2-.1-.3-.2-.3-.3-.4-.8-.7-1.1-.2-.3-.4-.5-.4-.5h-.3c-.1 0-.3 0-.5-.3.1 0 .1.1.2.1 0-.1 0-.1.1-.1h.1v-.1c0-.1-.1-.2-.2-.2-.2 0-.3-.2-.3-.3h-.2c.1-.1.2-.2.3-.2s.2 0 .4.2v-.1l-.1-.1-.1-.1v-.1c-.1-.1-.1-.1-.2-.1.1-.1.2-.1.3-.1.3 0 .4.3.4.4.1 0 .1 0 .1-.1v-.1c0-.1 0-.1.1-.2 0-.1-.1-.1-.1-.1h.1c.1 0 .3.1.3.3s-.1.4-.1.5c0 .2.8 1.3 1.1 1.5-.1.3-.3.8 0 1.1zm-.8-2.6h.1c.4 0 .4.6.9.6.2 0 .2-.1.4-.1.1 0 .2 0 .2.2 0 .1-.1.2-.4.2-.9 0-.7-.6-1.2-.9zM28 54.9c0-.1 0-.3.4-.3.3 0 .3.2.3.3h.3c0-.1 0-.3.3-.3.4 0 .4.2.4.3 0 .4-.6.5-.8.7h-.1c-.2-.1-.8-.3-.8-.7zm7.5 1.7c-.1.2.1.5.1.7s0 .2-.1.3c-.1 0-.3.1-.6.2 0 0 .1.1.1.3s-.3.2-.4.3l.1-.1c-.2-.1 0-.2 0-.2h-.1c-.3.1-.1.5-.5.4-.1 0 0 .1 0 .2-.1 0-.2-.1-.1-.2 0-.1.2-.2.2-.3h-.1c-.1 0-.2.3-.4.2 0 0-.1 0-.1.1 0-.1 0-.2.1-.3s.3-.1.3-.2c-.1-.1-.2.1-.3 0-.1 0-.1.1-.2.1 0-.1.1-.3.3-.4s.5.1.7 0h.3c.1 0 .1 0 .2-.1.2 0 .1-.1 0-.3-.2-.4.1-1.1.4-1.3.2-.1.4-.2.7-.1.1.1.1.2.1.3v.5c-.4-.3-.6-.3-.7-.1zm4.4.5V57c-.1 0-.1 0-.2-.1-.1.1-.1.1-.1.2s0 .1.1.1c0 .1-.1.2-.1.3v.2c-.1 0-.2 0-.2-.2v-.1h-.2c0 .1 0 .2-.1.3H39v.2c-.1 0-.1-.1-.1-.2-.1-.2.1-.2.1-.3h-.1c-.1.1-.1.1-.2.1h-.1v.2c-.1-.1-.1-.1-.1-.2s.1-.3.3-.4h.2c.1 0 .2-.2.2-.4-.3.1-1.3.8-2.1.8-1.2 0-.2-2-1.2-2s-1.2 1.2-2.3 1.2c-.4 0-.7-.1-.8-.1 0 .4 0 .5-.3.5-.2 0-.5.1-1.9.1-.1.5-.2.6-.4.6-.1 0-.1 0-.2-.1.1 0 .2 0 .2-.1l-.1-.1s0-.1.1-.1h-.1c-.2 0-.3.3-.6.3-.1 0-.2-.1-.2-.2 0 0-.1.1-.2.1 0-.2 0-.3.3-.3.1 0 .2 0 .2-.1v-.1h-.2c-.1 0-.2 0-.2-.1s-.1 0-.2.1c0-.2.1-.3.3-.3.1 0 .1 0 .3.1v-.1c0-.1-.1-.1-.2-.2-.1 0 0-.2-.2-.2-.1 0-.2.1-.2.1 0-.1.2-.3.4-.3.4 0 .4.4.9.4.6 0 1.1-.1 1.2-.2-.1-.1-.3-.3-.3-.5s.2-.6.3-.8h-.1c-.1 0-.2 0-.2-.2s.1-.3.1-.3h.2c0 .1.1.2.4.2s.4-.1.4-.3c0-.4-.1-.5-.5-.5-.3 0-.3 0-.3.1h-.2c-.1-.2-.2-.3-.2-.5s.1-.2.5-.2h.3l-.1-.8h.1c.2.2.3.4.3.4h.1c0-.2.1-.4.1-.4h.1c.1.2.1.4.1.4h.1s.1-.3.3-.4h.1l-.3.4c.3 0 .8 1 .8 1.8.3-.1 1.3-.1 1.4-.1-.8-.1-1.3-.5-1.3-1.6h.2c.4.1.6.4.6.6s-.1.3-.2.3c0 .2.3.4.8.4 1.1 0 1.2-1.3 2.5-1.3.5 0 1.2.2 1.2 1.1s-1 1.1-1.2 1.1c.2.2-.3 1 .2.8.5-.1 1-.5 1.2-.5.4-.1.3.5.7.7.3.2.3.2.4.3 0 .2-.1.4-.2.5zm.2-1.5H40c-.2-.1-.8-.3-.8-.7 0-.1 0-.3.4-.3.3 0 .3.2.3.3h.2c0-.1 0-.3.3-.3.4 0 .4.2.4.3 0 .4-.5.6-.7.7zm.3-5.5h-.1c-.2-.1-.8-.3-.8-.7 0-.1 0-.3.4-.3.3 0 .3.2.3.3h.2c0-.1 0-.3.3-.3.4 0 .4.2.4.3 0 .5-.5.6-.7.7zm0-5.2h-.1c-.2-.1-.8-.3-.8-.7 0-.1 0-.3.4-.3.3 0 .3.2.3.3h.2c0-.1 0-.3.3-.3.4 0 .4.2.4.3.1.4-.5.5-.7.7z"/><path class="st1" d="M38.3 54.3c0-.5-.4-.6-.6-.6-.7 0-.9.9-1.7 1h.4c.6 0 .9.1 1 .3h.1c.4 0 .8-.3.8-.7zM37.7 44.4h.1c.4 0 .8-.2.8-.7s-.4-.7-.7-.7c-.8 0-1 1-1.9 1.1h.5c.7 0 1 .1 1.2.3zM31.7 42.9c.2 0 .3-.1.4-.3h-.6c0 .2.1.3.2.3zM51.4 27.3c.3 0 .6.1.6.6 0 .6-.3.8-.5.8-.3 0-.9-.1-.9-.8 0-.5.6-.6.8-.6zM48.1 27.5c.3 0 .5.3.6.4 0-.2.3-.4.5-.4.4 0 .5.3.7.7s.4.8.9.8c0 .7-.2 1.1-.8 1.1-.3 0-.4-.1-.5-.1-.1.2-.2.4-.7.4-.3 0-.6-.2-.7-.3-.2.2-.4.3-.7.3s-.5-.2-.7-.4c-.1 0-.3.1-.4.1-.5 0-.7-1-.7-1.2 0-.3.2-.5.5-.5.1 0 .2 0 .3.1 0-.2.1-.6.5-.6.2 0 .4.1.5.2.3-.3.4-.6.7-.6z"/><path class="st1" d="M48 23.7c-.8 0-2.7.9-2.7 2.8 0 .4 0 .9.1 1.2 0 0 .1-.1.3-.1.1 0 .3.1.5.3 0-.3.1-.6.6-.6.3 0 .4.1.5.2.1-.4.4-.5.7-.5s.6.2.7.5c0-.3.3-.4.5-.4.5 0 .7.3.9.7 0-.5.7-.7 1.3-.7h.2c0-1.5-.7-2.7-2.3-3.1.3-2.5.1-2.7.1-2.8-.1-.1-.2-.1-.3-.2v-.4c.2 0 .4-.3.4-.5 0-.1-.2-1.3-.2-1.4s.1-.2.2-.2 1.1.5 1.3.5c.3 0 .5-.2.5-.5s-.2-.6-.4-.6c-.1 0-1.1.2-1.3.3-.1 0-.2-.1-.2-.3 0 0 .4-1.2.4-1.3 0-.3-.2-.5-.5-.5-.3-.1-.6.1-.6.4 0 .1.2 1.3.2 1.4s-.1.2-.2.2c-.2-.1-1.2-.4-1.3-.5-.3 0-.5.2-.5.5s.2.6.4.6c.1 0 1.3-.3 1.4-.3s.2.1.2.3c0 0-.3 1.2-.4 1.3 0 .2.1.5.3.5v.4c-.1 0-.2 0-.3.1-.3-.1-.4.1-.5 2.7z"/></svg>
