<?xml version="1.0" encoding="utf-8"?>
<svg xmlns="http://www.w3.org/2000/svg" viewBox="0 0 264.93 9.4">
<g class="cls-1"><path fill="#757575" d="M1.6,2.64C1.6,1.26,1.5,1.22.66,1L.38,1C.24.88.26.54.42.48c.68,0,1.3.06,1.94.06s1.26,0,2-.06c.16.06.18.4,0,.5L4.06,1c-.86.14-.94.22-.94,1.6V5.46c0,2,.66,3.36,2.6,3.36S8.31,7.46,8.31,5.47V3.61c0-2-.12-2.46-1-2.58L6.91,1a.34.34,0,0,1,0-.5c.64,0,1.1.06,1.68.06s1,0,1.66-.06a.33.33,0,0,1,0,.5L9.71,1c-.52.06-.68.6-.68,2.58v2c0,2.56-1.18,3.9-3.72,3.9a4,4,0,0,1-2.84-.84A3.82,3.82,0,0,1,1.6,5.83V2.64Z" transform="translate(-0.29 -0.1)"/><path fill="#757575" d="M21.66,3.62c0-2-.12-2.52-.86-2.58L20.16,1a.34.34,0,0,1,0-.5c.74,0,1.2.06,1.78.06s1,0,1.66-.06a.33.33,0,0,1,0,.5l-.6.06c-.52.06-.68.6-.68,2.58V7c0,.4,0,2,.06,2.32a.39.39,0,0,1-.42.18c-.22-.28-.62-.7-1.86-2l-3-3.24c-.76-.8-1.28-1.32-1.54-1.54-.08,0-.08.22-.08.84V6.14c0,2,.12,2.52.86,2.58l.64.06a.32.32,0,0,1,0,.5c-.74,0-1.2-.06-1.78-.06s-1,0-1.66.06a.33.33,0,0,1,0-.5l.6-.06c.52-.06.68-.6.68-2.58V2.56c0-.66,0-.94-.42-1.24A2.36,2.36,0,0,0,13.62,1L13.32,1a.32.32,0,0,1,0-.5c.76.06,1.3.06,1.72.06a5,5,0,0,0,.8-.06,11.79,11.79,0,0,0,2,2.46l1.88,1.94c.44.44,1.6,1.7,1.82,1.86.12,0,.12-.32.12-.8V3.62Z" transform="translate(-0.29 -0.1)"/><path fill="#757575" d="M28.36,2.64c0-1.38-.08-1.46-.94-1.6L27,1c-.14-.1-.12-.44,0-.5.78,0,1.4.06,2,.06s1.26,0,2-.06c.16.06.18.4,0,.5L30.82,1c-.86.14-.94.22-.94,1.6V7.12c0,1.38.08,1.46.94,1.6l.38.06c.14.1.12.44,0,.5-.76,0-1.42-.06-2-.06s-1.26,0-2,.06c-.16-.06-.18-.4,0-.5l.38-.06c.86-.14.94-.22.94-1.6Z" transform="translate(-0.29 -0.1)"/><path fill="#757575" d="M35.68,2.68c-.6-1.32-.68-1.42-1.16-1.54L33.86,1a.35.35,0,0,1,0-.5c.52,0,1.18.06,1.8.06s1.3,0,1.94-.06a.31.31,0,0,1,0,.5L37.2,1c-.52.08-.52.34-.08,1.32l1,2.22c.5,1.14.84,1.88,1.14,2.54.4-.84.74-1.68,1.12-2.52s1-2.3,1.18-2.88c.14-.42.12-.56-.48-.68L40.74,1a.31.31,0,0,1,0-.5c.58,0,1.1.06,1.64.06A12.2,12.2,0,0,0,43.84.48a.32.32,0,0,1,.1.5l-.56.12c-.6.12-.72.3-1.36,1.66L40.5,6c-.6,1.28-1.18,2.74-1.42,3.4a.31.31,0,0,1-.24.08.39.39,0,0,1-.24-.08c-.18-.52-.4-1.16-.66-1.72Z" transform="translate(-0.29 -0.1)"/><path fill="#757575" d="M47.64,2.64c0-1.38-.08-1.44-.84-1.6L46.52,1a.34.34,0,0,1,0-.5q.87.06,1.86.06h2.84A16.91,16.91,0,0,0,53.12.48c0,.24.12,1.18.22,2a.36.36,0,0,1-.52,0,2.81,2.81,0,0,0-.36-1c-.32-.48-1.22-.48-1.7-.48h-.88c-.7,0-.72,0-.72.64V4c0,.36,0,.4.38.4h.94c1.06,0,1.16-.16,1.32-.76l.1-.38a.34.34,0,0,1,.5,0c0,.58,0,.94,0,1.4s0,.86,0,1.44a.34.34,0,0,1-.5,0l-.1-.38c-.16-.6-.26-.76-1.32-.76h-.94c-.38,0-.38.06-.38.46V6.91a2.94,2.94,0,0,0,.22,1.44c.18.2.54.28,1.68.28s2-.06,2.6-1.66a.34.34,0,0,1,.52.08,7.38,7.38,0,0,1-.6,2.22c-1.26,0-2.32-.06-3.4-.06H48.42c-.64,0-1.26,0-2.22.06-.16-.06-.18-.4,0-.5l.54-.06c.86-.1.94-.22.94-1.6V2.64Z" transform="translate(-0.29 -0.1)"/><path fill="#757575" d="M58.6,2.88c0-1.3,0-1.64-.48-1.7l-.56-.08c-.16,0-.2-.44,0-.5,1.1-.08,2.22-.12,3.32-.12,1.86,0,3.88.3,3.88,2.4A2.31,2.31,0,0,1,63,5a.24.24,0,0,0,0,.3,12.11,12.11,0,0,0,2.54,3.2,1.8,1.8,0,0,0,1.06.42.24.24,0,0,1,0,.32,2.8,2.8,0,0,1-.84.1,3.16,3.16,0,0,1-2.8-1.5c-.5-.64-1-1.52-1.46-2.16a.93.93,0,0,0-.8-.32c-.52,0-.56,0-.56.32V7.12c0,1.38.08,1.48.94,1.6l.46.06c.14.1.12.44,0,.5-.84,0-1.5-.06-2.12-.06s-1.26,0-2,.06a.29.29,0,0,1,0-.5l.3-.06c.86-.18.94-.22.94-1.6V2.88Zm1.52,1.46c0,.5,0,.5,1,.5,1.3,0,2-.52,2-1.9A1.88,1.88,0,0,0,61,1.06c-.74,0-.88,0-.88.56V4.34Z" transform="translate(-0.29 -0.1)"/><path fill="#757575" d="M71.24,5.14a2.82,2.82,0,0,1-1.78-2.4c0-1.46,1.12-2.48,3.14-2.48a9.75,9.75,0,0,1,1.86.3,5.07,5.07,0,0,1,.28,2c-.06.16-.42.18-.52,0A2,2,0,0,0,72.36.84c-1.18,0-1.62.68-1.62,1.36s.54,1.16,1.34,1.58l1.24.64A2.85,2.85,0,0,1,74.94,7c0,1.56-1.28,2.54-3.26,2.54a4.11,4.11,0,0,1-2.3-.62A4.21,4.21,0,0,1,69,6.82a.31.31,0,0,1,.52,0,2.81,2.81,0,0,0,2.38,2.14c1,0,1.68-.52,1.68-1.44,0-.64-.26-1.3-1.4-1.88Z" transform="translate(-0.29 -0.1)"/><path fill="#757575" d="M79.8,2.64c0-1.38-.08-1.46-.94-1.6L78.48,1c-.14-.1-.12-.44,0-.5.78,0,1.4.06,2,.06s1.26,0,2-.06c.16.06.18.4,0,.5L82.26,1c-.86.14-.94.22-.94,1.6V7.12c0,1.38.08,1.46.94,1.6l.38.06c.14.1.12.44,0,.5-.76,0-1.42-.06-2-.06s-1.26,0-2,.06c-.16-.06-.18-.4,0-.5l.38-.06c.86-.14.94-.22.94-1.6Z" transform="translate(-0.29 -0.1)"/><path fill="#757575" d="M89.38,1.64c0-.52,0-.52-.42-.52h-.62c-1.22,0-1.74.12-2.22,1.5a.34.34,0,0,1-.5-.1c.22-.86.44-1.86.54-2.36a.3.3,0,0,1,.36,0c0,.4.3.38,1.1.38h5.56c.74,0,.88,0,1-.38a.27.27,0,0,1,.36.06,8.37,8.37,0,0,0-.2,2.34.32.32,0,0,1-.5,0c-.14-1.3-.66-1.46-1.86-1.46h-.68c-.38,0-.44,0-.44.52V7.12c0,1.38.08,1.5.94,1.6l.54.06c.14.1.12.44,0,.5-.82,0-1.58-.06-2.2-.06s-1.36,0-2.2.06c-.16-.06-.18-.4,0-.5l.54-.06c.86-.1.94-.22.94-1.6V1.64Z" transform="translate(-0.29 -0.1)"/><path fill="#757575" d="M100.66,6.56a2.79,2.79,0,0,0-.56-1.7l-1.46-2.7c-.42-.8-.62-1-1.14-1.08L97,1A.33.33,0,0,1,97,.48c.66,0,1.12.06,1.84.06s1.06,0,1.7-.06a.3.3,0,0,1,0,.5l-.28.06c-.44.1-.5.22-.18.84l.74,1.42c.32.6.6,1.14.9,1.66.32-.54.62-1,1-1.66l.8-1.46c.3-.56.34-.74-.14-.8L103,1a.29.29,0,0,1,0-.5c.6,0,1.06.06,1.52.06s.86,0,1.42-.06a.32.32,0,0,1,0,.5l-.48.1c-.62.12-.72.24-1.34,1.24l-1.24,2c-.72,1.14-.76,1.34-.76,1.92V7.32c0,1.18.08,1.3.94,1.4l.5.06c.14.1.12.44,0,.5-.88,0-1.54-.06-2.16-.06s-1.26,0-2.16.06c-.16-.06-.18-.4,0-.5l.5-.06c.86-.1.94-.22.94-1.4V6.56Z" transform="translate(-0.29 -0.1)"/><path fill="#757575" d="M125.34,4.84a4.61,4.61,0,0,1-4.86,4.66c-3.1,0-4.94-2-4.94-4.54a4.68,4.68,0,0,1,4.94-4.7C123.7.26,125.34,2.4,125.34,4.84Zm-8-.2c0,2.06.94,4.28,3.26,4.28,1.52,0,3-1,3-3.78,0-2.14-1-4.3-3.22-4.3C118.9.84,117.32,1.82,117.32,4.64Z" transform="translate(-0.29 -0.1)"/><path fill="#757575" d="M130.2,2.64c0-1.38-.1-1.42-.84-1.6L129.12,1c-.14-.1-.12-.44,0-.5.54,0,1.16.06,1.8.06h2.78c.88,0,1.64,0,1.92-.06,0,.24,0,1.18.1,2a.31.31,0,0,1-.52,0,2.81,2.81,0,0,0-.36-1c-.34-.5-1.22-.48-1.7-.48h-.78c-.62,0-.68,0-.68.7V4.14c0,.36,0,.4.38.4h1.08c1.06,0,1.16-.16,1.32-.76l.1-.38a.34.34,0,0,1,.5,0c0,.58,0,.94,0,1.4s0,.86,0,1.44a.34.34,0,0,1-.5,0l-.1-.38c-.16-.6-.26-.76-1.32-.76H132.1c-.38,0-.38.06-.38.46V7.11c0,1.38.08,1.52.94,1.6l.62.06c.14.1.12.44,0,.5-1,0-1.66-.06-2.28-.06s-1.26,0-2,.06c-.16-.06-.18-.4,0-.5l.38-.06c.86-.14.94-.22.94-1.6V2.64Z" transform="translate(-0.29 -0.1)"/><path fill="#757575" d="M154.38.64a17.9,17.9,0,0,0,.18,2.2.34.34,0,0,1-.52,0,2.54,2.54,0,0,0-2.78-2c-1.72,0-3.42,1.16-3.42,3.88s1.72,4.2,3.6,4.2a3.13,3.13,0,0,0,2.88-2,.31.31,0,0,1,.52,0,5.87,5.87,0,0,1-.66,2.16,10.71,10.71,0,0,1-2.7.42A6.12,6.12,0,0,1,148,8.58,4.24,4.24,0,0,1,146.07,5a4.4,4.4,0,0,1,1.68-3.6,6.36,6.36,0,0,1,3.9-1.16A14.88,14.88,0,0,1,154.38.64Z" transform="translate(-0.29 -0.1)"/><path fill="#757575" d="M167.76,4.84A4.61,4.61,0,0,1,162.9,9.5c-3.1,0-4.94-2-4.94-4.54A4.68,4.68,0,0,1,162.9.25C166.12.26,167.76,2.4,167.76,4.84Zm-8-.2c0,2.06.94,4.28,3.26,4.28,1.52,0,3-1,3-3.78,0-2.14-1-4.3-3.22-4.3C161.32.84,159.74,1.82,159.74,4.64Z" transform="translate(-0.29 -0.1)"/><path fill="#757575" d="M172.62,2.88c0-1.3,0-1.6-.48-1.68l-.6-.1c-.18-.06-.16-.44,0-.5,1.12-.08,2.14-.12,3.2-.12a6.93,6.93,0,0,1,2.4.34,2.41,2.41,0,0,1,1.62,2.34,2.32,2.32,0,0,1-1.66,2.28,4.94,4.94,0,0,1-1.82.3.27.27,0,0,1,0-.36,2.1,2.1,0,0,0,1.86-2.28,1.92,1.92,0,0,0-2.18-2c-.82,0-.82.12-.82.68V7.12c0,1.38.08,1.48.94,1.6l.46.06a.33.33,0,0,1,0,.5c-.84,0-1.5-.06-2.12-.06s-1.26,0-2,.06c-.16-.06-.18-.4,0-.5l.3-.06c.86-.18.94-.22.94-1.6V2.88Z" transform="translate(-0.29 -0.1)"/><path fill="#757575" d="M183.18,2.64c0-1.38-.08-1.44-.84-1.6L182.06,1a.33.33,0,0,1,0-.5c.58,0,1.2.06,1.86.06h2.84a16.82,16.82,0,0,0,1.86-.06c0,.24.12,1.18.22,2a.36.36,0,0,1-.52,0,2.81,2.81,0,0,0-.36-1c-.32-.48-1.22-.48-1.7-.48h-.88c-.7,0-.72,0-.72.64V4c0,.36,0,.4.38.4H186c1.06,0,1.16-.16,1.32-.76l.1-.38a.34.34,0,0,1,.5,0c0,.58,0,.94,0,1.4s0,.86,0,1.44a.34.34,0,0,1-.5,0l-.1-.38c-.16-.6-.26-.76-1.32-.76h-.94c-.38,0-.38.06-.38.46V6.91a2.94,2.94,0,0,0,.22,1.44c.18.2.54.28,1.68.28s2-.06,2.6-1.66a.34.34,0,0,1,.52.08,7.41,7.41,0,0,1-.6,2.22c-1.26,0-2.32-.06-3.4-.06H184c-.64,0-1.26,0-2.22.06-.16-.06-.18-.4,0-.5l.54-.06c.86-.1.94-.22.94-1.6V2.63h0Z" transform="translate(-0.29 -0.1)"/><path fill="#757575" d="M201,3.62c0-2-.12-2.52-.86-2.58L199.52,1a.34.34,0,0,1,0-.5c.74,0,1.2.06,1.78.06s1,0,1.66-.06a.33.33,0,0,1,0,.5l-.6.06c-.52.06-.68.6-.68,2.58V7c0,.4,0,2,.06,2.32a.39.39,0,0,1-.42.18c-.22-.28-.62-.7-1.86-2l-3-3.24c-.76-.8-1.28-1.32-1.54-1.54-.08,0-.08.22-.08.84V6.14c0,2,.12,2.52.86,2.58l.64.06a.32.32,0,0,1,0,.5c-.74,0-1.2-.06-1.78-.06s-1,0-1.66.06a.34.34,0,0,1,0-.5l.6-.06c.52-.06.68-.6.68-2.58V2.56c0-.66,0-.94-.42-1.24A2.34,2.34,0,0,0,193,1l-.3-.06a.32.32,0,0,1,0-.5c.76.06,1.3.06,1.72.06a5,5,0,0,0,.8-.06,11.8,11.8,0,0,0,2,2.46l1.88,1.94c.44.44,1.6,1.7,1.82,1.86.12,0,.12-.32.12-.8V3.62Z" transform="translate(-0.29 -0.1)"/><path fill="#757575" d="M213.48,4.38c.64,0,.72,0,.72-.52V2.64c0-1.38-.08-1.46-.94-1.6L212.88,1c-.14-.1-.12-.44,0-.5.78,0,1.4.06,2,.06s1.26,0,2-.06c.16.06.18.4,0,.5l-.38.06c-.86.14-.94.22-.94,1.6V7.12c0,1.38.08,1.48.94,1.6l.46.06c.14.1.12.44,0,.5-.84,0-1.5-.06-2.12-.06s-1.26,0-2,.06c-.16-.06-.18-.4,0-.5l.38-.06c.86-.14.94-.22.94-1.6V5.54c0-.5,0-.52-.72-.52H210c-.68,0-.72,0-.72.52V7.12c0,1.38.08,1.5.94,1.6l.54.06c.14.1.12.44,0,.5-.92,0-1.58-.06-2.2-.06s-1.26,0-1.88.06c-.16-.06-.18-.4,0-.5l.22-.06c.84-.22.94-.22.94-1.6V2.64c0-1.38-.08-1.48-.94-1.6L206.32,1c-.14-.1-.12-.44,0-.5.86,0,1.48.06,2.12.06s1.26,0,2-.06a.33.33,0,0,1,0,.5l-.3.06c-.84.16-.94.22-.94,1.6V3.86c0,.52.08.52.72.52Z" transform="translate(-0.29 -0.1)"/><path fill="#757575" d="M223.08,6.12c-.46,0-.52,0-.68.48l-.46,1.28c-.22.64-.16.72.22.8l.54.1c.16.1.14.46-.06.5-.5,0-1-.06-1.58-.06s-1,0-1.4.06a.32.32,0,0,1,0-.5l.46-.1c.62-.14.84-.36,1.24-1.32l1.92-4.6a6.4,6.4,0,0,0,.52-1.68,1.79,1.79,0,0,0,.84-.76c.16-.06.28,0,.32.1s.4,1.24.86,2.46l1.8,4.78c.24.66.42.92,1.14,1.06l.32.06a.29.29,0,0,1-.06.5c-.52,0-1-.06-1.66-.06s-1.3,0-1.8.06a.29.29,0,0,1,0-.5l.4-.06c.52-.08.5-.2.26-.82l-.48-1.3c-.16-.46-.22-.48-.68-.48h-1.9Zm1.58-.64c.52,0,.58,0,.36-.62l-.62-1.7a3.61,3.61,0,0,0-.3-.72h0a4.09,4.09,0,0,0-.32.68L223,4.9c-.22.54-.18.58.26.58Z" transform="translate(-0.29 -0.1)"/><path fill="#757575" d="M238.28,7.42c0-.92,0-1-.92-1.2l-.64-.12a.33.33,0,0,1,0-.5c.8,0,1.68.06,2.26.06s1.22,0,1.7-.06a.36.36,0,0,1,.06.5l-.36.08c-.52.12-.6.24-.6,1.1v.56c0,.48,0,.78.32.92a.18.18,0,0,1,0,.28,12.06,12.06,0,0,0-1.2.22,10.73,10.73,0,0,1-2,.24A5.8,5.8,0,0,1,232.6,8a4.37,4.37,0,0,1-1.24-3,4.46,4.46,0,0,1,1.26-3.14A5.82,5.82,0,0,1,237,.26a12.54,12.54,0,0,1,2.68.4c0,.4.06,1.2.18,2.26a.32.32,0,0,1-.52,0,2.62,2.62,0,0,0-2.84-2.1c-2.1,0-3.4,1.62-3.4,4a3.79,3.79,0,0,0,3.94,4.12c1.06,0,1.2-.2,1.2-1v-.5Z" transform="translate(-0.29 -0.1)"/><path fill="#757575" d="M245.28,2.64c0-1.38-.08-1.44-.84-1.6L244.16,1a.34.34,0,0,1,0-.5q.87.06,1.86.06h2.84a16.83,16.83,0,0,0,1.86-.06c0,.24.12,1.18.22,2a.36.36,0,0,1-.52,0,2.79,2.79,0,0,0-.36-1c-.32-.48-1.22-.48-1.7-.48h-.88c-.7,0-.72,0-.72.64V4c0,.36,0,.4.38.4h.94c1.06,0,1.16-.16,1.32-.76l.1-.38a.34.34,0,0,1,.5,0c0,.58,0,.94,0,1.4s0,.86,0,1.44a.34.34,0,0,1-.5,0l-.1-.38c-.16-.6-.26-.76-1.32-.76h-.94c-.38,0-.38.06-.38.46V6.91A2.93,2.93,0,0,0,247,8.35c.18.2.54.28,1.68.28s2-.06,2.6-1.66a.34.34,0,0,1,.52.08,7.43,7.43,0,0,1-.6,2.22c-1.26,0-2.32-.06-3.4-.06h-1.76c-.64,0-1.26,0-2.22.06-.16-.06-.18-.4,0-.5l.54-.06c.86-.1.94-.22.94-1.6V2.64Z" transform="translate(-0.29 -0.1)"/><path fill="#757575" d="M263.12,3.62c0-2-.12-2.52-.86-2.58L261.62,1a.33.33,0,0,1,0-.5c.74,0,1.2.06,1.78.06s1,0,1.66-.06a.34.34,0,0,1,0,.5l-.6.06c-.52.06-.68.6-.68,2.58V7c0,.4,0,2,.06,2.32a.39.39,0,0,1-.42.18c-.22-.28-.62-.7-1.86-2l-3-3.24c-.76-.8-1.28-1.32-1.54-1.54-.08,0-.08.22-.08.84V6.14c0,2,.12,2.52.86,2.58l.64.06a.32.32,0,0,1,0,.5c-.74,0-1.2-.06-1.78-.06s-1,0-1.66.06a.33.33,0,0,1,0-.5l.6-.06c.52-.06.68-.6.68-2.58V2.56c0-.66,0-.94-.42-1.24a2.37,2.37,0,0,0-.74-.28l-.3-.06a.32.32,0,0,1,0-.5c.76.06,1.3.06,1.72.06a5,5,0,0,0,.8-.06,11.84,11.84,0,0,0,2,2.46l1.88,1.94c.44.44,1.6,1.7,1.82,1.86.12,0,.12-.32.12-.8V3.62Z" transform="translate(-0.29 -0.1)"/></g></svg>